  http://www.silvertorrent.org

  
http://www.shotpix.com/images/08096634903738710469.png
  
http://whysoblu.com/wp-content/uploads/2012/12/Seven-Psychopaths-Blu-ray.jpg
  
http://www.imdb.com/title/tt1931533/


Video: 720x288 @ 1600Kbps 2pass
Audio: English MP3 128Kbps
Subtitles : None
Sample: Yes, included


Sources: 
Video ...Sem.psihopatov.2012.D.DVD / Thx

Audio ..........p2p DVDSCR / Thx


Complete name                            : Seven.Psychopaths.2012.SYNCED.DVDRip.R5.XViD-TiCKLE.TiME.avi
Format                                   : AVI
Format/Info                              : Audio Video Interleave
File size                                : 1.32 GiB
Duration                                 : 1h 45mn
Overall bit rate                         : 1 795 Kbps
Writing application                      : VirtualDubMod 1.5.10.3 (build 2550/release)
Writing library                          : VirtualDub build 32842/release

Video
ID                                       : 0
Format                                   : MPEG-4 Visual
Format profile                           : Advanced Simple@L5
Format settings, BVOP                    : 2
Format settings, QPel                    : No
Format settings, GMC                     : No warppoints
Format settings, Matrix                  : Default (H.263)
Muxing mode                              : Packed bitstream
Codec ID                                 : XVID
Codec ID/Hint                            : XviD
Duration                                 : 1h 45mn
Bit rate                                 : 1 658 Kbps
Width                                    : 704 pixels
Height                                   : 288 pixels
Display aspect ratio                     : 2.40:1
Frame rate                               : 25.000 fps
Color space                              : YUV
Chroma subsampling                       : 4:2:0
Bit depth                                : 8 bits
Scan type                                : Progressive
Compression mode                         : Lossy
Bits/(Pixel*Frame)                       : 0.327
Stream size                              : 1.22 GiB (92%)
Writing library                          : XviD 64

Audio
ID                                       : 1
Format                                   : MPEG Audio
Format version                           : Version 1
Format profile                           : Layer 3
Codec ID                                 : 55
Codec ID/Hint                            : MP3
Duration                                 : 1h 45mn
Bit rate mode                            : Constant
Bit rate                                 : 128 Kbps
Channel(s)                               : 2 channels
Sampling rate                            : 48.0 KHz
Compression mode                         : Lossy
Stream size                              : 96.7 MiB (7%)
Alignment                                : Split accross interleaves
Interleave, preload duration             : 500 ms
Writing library                          : LAME3.98.2

 
http://www.imdb.com/title/tt1931533/

RunTime: 105 Mins

Plot:
A struggling screenwriter inadvertently becomes entangled in the Los Angeles criminal underworld after his oddball friends kidnap a gangster's beloved Shih Tzu.

  
http://img99.imageshack.us/img99/8403/52223901.jpg  
http://img152.imageshack.us/img152/2442/10879804.jpg  
http://img4.imageshack.us/img4/3012/12818510.jpg  
http://img22.imageshack.us/img22/5951/59790910.jpg  
http://img59.imageshack.us/img59/1174/74005638.jpg  
http://img507.imageshack.us/img507/498/15082776.jpg	